-
http:// www. Speed. Cd       
http:// www. Speed. Cd       the fast  and The Hottest Private Tracker on the net

Please Seed back to make the speed Faster!!!

and don't forget to visit      ...... www. Speed. Cd..........
-[img]http://img576.imageshack.us/img576/2232/elektraluxx1.jpg[/img]

[color=blue][size=5][b]Elektra Luxx 2010 R5 DVDRip XVID AC3 5.1 HQ Hive-CM8 [/b][/size][/color]


[b]Thx Hive

CM8 Doing It Right The First Time :D

Source Russian DVD-9
Elektra.Luxx.2010.P.DVD.ELEKTRI4KA
had English stereo audio on it btw.

Encode: added brightness,sharpness,rgb,denoise and entered the studio audio into the russian 5.1 track
ps: there is 2 mins bonusmaterial after the endcredits witch is still there!

Video: 720x400 @bitrate 1800 2pass
Audio: English AC3 5.1 @448
Sample: yes included[/b]


[url]http://www.imdb.com/title/tt1340773/[/url]


General
Complete name                    : Elektra.Luxx.2010.R5.DVDRip.XVID.AC3.5.1.HQ.Hive-CM8.avi
Format                           : AVI
Format/Info                      : Audio Video Interleave
File size                        : 1.51 GiB
Duration                         : 1h 35mn
Overall bit rate                 : 2 258 Kbps
Writing application              : Nandub v1.0rc2
Writing library                  : Nandub build 1853/release

Video
ID                               : 0
Format                           : MPEG-4 Visual
Format profile                   : Advanced Simple@L5
Format settings, BVOP            : Yes
Format settings, QPel            : Yes
Format settings, GMC             : No warppoints
Format settings, Matrix          : Default (H.263)
Muxing mode                      : Packed bitstream
Codec ID                         : XVID
Codec ID/Hint                    : XviD
Duration                         : 1h 35mn
Bit rate                         : 1 800 Kbps
Width                            : 720 pixels
Height                           : 400 pixels
Display aspect ratio             : 16:9
Frame rate                       : 25.000 fps
Color space                      : YUV
Chroma subsampling               : 4:2:0
Bit depth                        : 8 bits
Scan type                        : Progressive
Bits/(Pixel*Frame)               : 0.250
Stream size                      : 1.20 GiB (80%)
Writing library                  : XviD 1.2.1 (UTC 2008-12-04)

Audio
ID                               : 1
Format                           : AC-3
Format/Info                      : Audio Coding 3
Mode extension                   : CM (complete main)
Codec ID                         : 2000
Duration                         : 1h 35mn
Bit rate mode                    : Constant
Bit rate                         : 448 Kbps
Channel(s)                       : 6 channels
Channel positions                : Front: L C R, Side: L R, LFE
Sampling rate                    : 48.0 KHz
Bit depth                        : 16 bits
Stream size                      : 307 MiB (20%)
Alignment                        : Split accross interleaves
Interleave, duration             : 40 ms (1.00 video frame)
Interleave, preload duration     : 500 ms




Joseph Gordon-Levitt	 ... 	Bert Rodriguez
Carla Gugino	... 	Elektra Luxx / Celia (also as Taryn Gugino)
Ermahn Ospina	... 	Jimmy Cojones
Jake Hames	... 	Thief #1
Kathleen Quinlan	... 	Rebecca Linbrook
Melissa Stephens	... 	Nadine
Susie Goliti	... 	Maria


Pregnant porn star Elektra Luxx is trying to make a split from the adult film 
industry by making a living teaching sex classes to housewives. But her life is 
thrown into disarray when a flight attendant with ties to Elektra's past approaches 
her for a favor. Chaos and hilarity ensue as fiancees, private investigators,
a twin sister, best selling authors and even the Virgin Mary force her to face up 
to an unexpected series of decisions and revelations. 



[img]http://img69.imageshack.us/img69/7452/eellel.png[/img]
[img]http://img850.imageshack.us/img850/1475/43300649.png[/img]
[img]http://img716.imageshack.us/img716/5061/elel.png[/img]
[img]http://img851.imageshack.us/img851/2915/eelleeelll.png[/img]
[img]http://img3.imageshack.us/img3/2276/eelleeleelelll.png[/img]
[img]http://img855.imageshack.us/img855/4415/eelleeleelll.png[/img]
[img]http://img857.imageshack.us/img857/2199/eelleeleleelelll.png[/img]
[img]http://img811.imageshack.us/img811/7879/eelleeleleleelelll.png[/img]
[img]http://img833.imageshack.us/img833/2590/eelleeleleleleelelll.png[/img]
[img]http://img25.imageshack.us/img25/5631/eelleell.png[/img]





Greetz

ViSiON,LUSi,SANTi,MAGNET,THC,T0XiCiNK,LKRG,IMAGiNE,WBZ,FLAWL3SS,NOVA
Vik,Rapeseed,D2U,SAFC,goldadvance,MEMORY100,KaN1vE,Unevano,Pinnz,Wayne,Mr Hive
and all P2P groups 
Great Work Guys :D


CM8@hushmail.com